<svg width="81" height="81" viewBox="0 0 81 81" fill="none" xmlns="http://www.w3.org/2000/svg">
<rect width="81" height="81" fill="white"/>
<circle cx="40.4591" cy="40.4591" r="40.4591" fill="#D8D8D8"/>
<path d="M62.2754 38.2774H53.1781L60.2465 31.2089L57.1704 28.111L47.0041 38.2774H42.6409V33.9141L52.8072 23.7478L49.7093 20.6717L42.6409 27.7402V18.6428H38.2776V27.7402L31.2092 20.6717L28.1113 23.7478L38.2776 33.9141V38.2774H33.9144L23.7481 28.111L20.672 31.2089L27.7404 38.2774H18.6431V42.6406H27.7404L20.672 49.7091L23.7481 52.807L33.9144 42.6406H38.2776V47.0039L28.1113 57.1702L31.2092 60.2463L38.2776 53.1778V62.2752H42.6409V53.1778L49.7093 60.2463L52.8072 57.1702L42.6409 47.0039V42.6406H47.0041L57.1704 52.807L60.2465 49.7091L53.1781 42.6406H62.2754V38.2774Z" fill="#252525"/>
</svg>
