<svg width="81" height="81" viewBox="0 0 81 81" fill="none" xmlns="http://www.w3.org/2000/svg">
<rect width="81" height="81" fill="white"/>
<circle cx="40.4591" cy="40.4591" r="40.4591" fill="#0085FF"/>
<path d="M62.2754 38.2773H53.1781L60.2465 31.2088L57.1704 28.1109L47.0041 38.2773H42.6409V33.914L52.8072 23.7477L49.7093 20.6716L42.6409 27.74V18.6427H38.2776V27.74L31.2092 20.6716L28.1113 23.7477L38.2776 33.914V38.2773H33.9144L23.7481 28.1109L20.672 31.2088L27.7404 38.2773H18.6431V42.6405H27.7404L20.672 49.7089L23.7481 52.8068L33.9144 42.6405H38.2776V47.0037L28.1113 57.1701L31.2092 60.2462L38.2776 53.1777V62.2751H42.6409V53.1777L49.7093 60.2462L52.8072 57.1701L42.6409 47.0037V42.6405H47.0041L57.1704 52.8068L60.2465 49.7089L53.1781 42.6405H62.2754V38.2773Z" fill="white"/>
</svg>
