<svg width="81" height="81" viewBox="0 0 81 81" fill="none" xmlns="http://www.w3.org/2000/svg">
<rect width="81" height="81" fill="white"/>
<circle cx="40.5" cy="40.5" r="40.5" fill="#0085FF"/>
<path fill-rule="evenodd" clip-rule="evenodd" d="M47.0514 63.3756L33.9485 63.3756L33.9485 52.8714C30.0394 50.6002 27.397 46.3855 27.397 41.5374C27.397 34.3089 33.2715 28.4344 40.4999 28.4344C47.7284 28.4344 53.6029 34.3089 53.6029 41.5374C53.6029 46.3855 50.9605 50.6002 47.0514 52.8714L47.0514 63.3756ZM38.3161 59.008L38.3161 50.36L36.1322 49.0934C33.4243 47.5211 31.7646 44.6384 31.7646 41.5374C31.7646 36.7111 35.6736 32.8021 40.4999 32.8021C45.3261 32.8021 49.2352 36.7111 49.2352 41.5374C49.2352 44.6384 47.5536 47.5211 44.8675 49.0934L42.6837 50.36L42.6837 59.008L38.3161 59.008ZM57.9705 43.8304L64.522 43.8304L64.522 39.4627L57.9705 39.4627L57.9705 43.8304ZM58.9533 26.1633L55.8741 23.0841L51.965 27.015L55.0442 30.0941L58.9533 26.1633ZM38.3161 24.176L38.3161 17.6245L42.6837 17.6245L42.6837 24.176L38.3161 24.176ZM23.0293 43.8304L16.4778 43.8304L16.4778 39.4627L23.0293 39.4627L23.0293 43.8304ZM25.1476 23.0622L29.0567 26.9931L25.9993 30.0504L22.0684 26.1414L25.1476 23.0622Z" fill="white"/>
</svg>
