<svg width="81" height="81" viewBox="0 0 81 81" fill="none" xmlns="http://www.w3.org/2000/svg">
<rect width="81" height="81" fill="white"/>
<ellipse cx="40.4591" cy="40.4483" rx="40.4591" ry="40.4483" fill="#D8D8D8"/>
<path fill-rule="evenodd" clip-rule="evenodd" d="M40.499 12.6392C25.1169 12.6392 12.6382 25.1179 12.6382 40.5C12.6382 55.8821 25.1169 68.3608 40.499 68.3608C55.8811 68.3608 68.3598 55.8821 68.3598 40.5C68.3598 25.1179 55.8811 12.6392 40.499 12.6392ZM40.499 62.7775C28.2157 62.7775 18.2215 52.7833 18.2215 40.5C18.2215 28.2167 28.2157 18.2225 40.499 18.2225C52.7824 18.2225 62.7765 28.2167 62.7765 40.5C62.7765 52.7833 52.7824 62.7775 40.499 62.7775ZM30.0311 44.6875L42.5936 20.9583V36.3125H50.9686L38.7969 60.0416V44.6875H30.0311Z" fill="#252525"/>
</svg>
